<?xml version="1.0" encoding="UTF-8" standalone="no"?>
<!DOCTYPE svg PUBLIC "-//W3C//DTD SVG 1.1//EN" "http://www.w3.org/Graphics/SVG/1.1/DTD/svg11.dtd">
<svg width="100%" height="100%" viewBox="0 0 800 800" version="1.1" xmlns="http://www.w3.org/2000/svg" xmlns:xlink="http://www.w3.org/1999/xlink" xml:space="preserve" xmlns:serif="http://www.serif.com/" style="fill-rule:evenodd;clip-rule:evenodd;stroke-linejoin:round;stroke-miterlimit:1.41421;">
    <g transform="matrix(0.833333,0,0,0.833333,0,0)">
        <rect x="0" y="0" width="960" height="960" style="fill:white;"/>
    </g>
    <g transform="matrix(1,0,0,1,-248,192)">
        <g transform="matrix(1,0,0,1,416,8)">
            <rect x="96" y="120" width="8" height="128"/>
        </g>
        <g transform="matrix(1,0,0,1,432,8)">
            <rect x="80" y="120" width="128" height="8"/>
        </g>
        <g transform="matrix(1,0,0,1,432,128)">
            <rect x="80" y="120" width="128" height="8"/>
        </g>
        <g transform="matrix(3,0,0,1,224,8)">
            <rect x="96" y="120" width="8" height="128"/>
        </g>
        <g transform="matrix(1,0,0,3,432,-232)">
            <rect x="80" y="120" width="128" height="8"/>
        </g>
        <g transform="matrix(1,0,0,1,384,-1728)">
            <rect x="128" y="1792" width="128" height="256" style="fill:none;"/>
        </g>
        <g transform="matrix(1,0,0,3,432,-128)">
            <rect x="80" y="120" width="128" height="8"/>
        </g>
    </g>
    <g transform="matrix(1,0,0,1,-2904,-448)">
        <g transform="matrix(3,0,0,1,3272,648)">
            <rect x="96" y="120" width="8" height="128"/>
        </g>
        <g transform="matrix(3,0,0,1,3168,648)">
            <rect x="96" y="120" width="8" height="128"/>
        </g>
        <g transform="matrix(1,0,0,3,3376,408)">
            <rect x="80" y="120" width="128" height="8"/>
        </g>
        <g transform="matrix(1,0,0,1,3328,-1088)">
            <rect x="128" y="1792" width="128" height="256" style="fill:none;"/>
        </g>
        <g transform="matrix(1,0,0,3,3376,512)">
            <rect x="80" y="120" width="128" height="8"/>
        </g>
    </g>
    <g transform="matrix(1,0,0,1,-3336,-448)">
        <g transform="matrix(3,0,0,1,3272,648)">
            <rect x="96" y="120" width="8" height="128"/>
        </g>
        <g transform="matrix(3,0,0,1,3168,648)">
            <rect x="96" y="120" width="8" height="128"/>
        </g>
        <g transform="matrix(1,0,0,3,3376,408)">
            <rect x="80" y="120" width="128" height="8"/>
        </g>
        <g transform="matrix(1,0,0,1,3328,-1088)">
            <rect x="128" y="1792" width="128" height="256" style="fill:none;"/>
        </g>
        <g transform="matrix(1,0,0,3,3376,512)">
            <rect x="80" y="120" width="128" height="8"/>
        </g>
    </g>
    <g transform="matrix(1,0,0,1,-3240,-128)">
        <g transform="matrix(3,0,0,1,3464,328)">
            <rect x="96" y="120" width="8" height="128"/>
        </g>
        <g transform="matrix(3,0,0,1.5,3360,204)">
            <rect x="96" y="120" width="8" height="128"/>
        </g>
        <g transform="matrix(1,0,0,3,3568,88)">
            <rect x="80" y="120" width="128" height="8"/>
        </g>
        <g transform="matrix(1,0,0,1,3520,-1408)">
            <rect x="128" y="1792" width="128" height="256" style="fill:none;"/>
        </g>
    </g>
    <g transform="matrix(1,0,0,1,304,96)">
        <g transform="matrix(0.25,0,0,0.25,-104,127.757)">
            <g transform="matrix(4,0,0,1,512,968)">
                <rect x="96" y="120" width="8" height="128"/>
            </g>
            <g transform="matrix(4,0,0,1.5,608,908)">
                <rect x="96" y="120" width="8" height="128"/>
            </g>
            <g transform="matrix(1,0,0,4,816,704.485)">
                <rect x="80" y="120" width="128" height="8"/>
            </g>
            <g transform="matrix(1,0,0,1,768,-767.029)">
                <rect x="128" y="1792" width="128" height="256" style="fill:none;"/>
            </g>
        </g>
        <g transform="matrix(0.25,0,0,0.25,232,368)">
            <g transform="matrix(4,0,0,1,-256,8)">
                <rect x="96" y="120" width="8" height="128"/>
            </g>
            <g transform="matrix(4,0,0,1,-160,8)">
                <rect x="96" y="120" width="8" height="128"/>
            </g>
            <g transform="matrix(1,0,0,4,48,-352)">
                <rect x="80" y="120" width="128" height="8"/>
            </g>
            <g transform="matrix(1,0,0,1,-7.24754e-13,-1728)">
                <rect x="128" y="1792" width="128" height="256" style="fill:none;"/>
            </g>
            <g transform="matrix(0.5,0,0,4,88,-256)">
                <rect x="80" y="120" width="128" height="8"/>
            </g>
        </g>
        <g transform="matrix(0.25,0,0,0.25,-176,208)">
            <g transform="matrix(4,0,0,1.5,704,524)">
                <rect x="96" y="120" width="8" height="128"/>
            </g>
            <g transform="matrix(0.5,0,0,1,1024,-1088)">
                <rect x="128" y="1792" width="128" height="256" style="fill:none;"/>
            </g>
            <g transform="matrix(0.5,0,0,4,1048,288)">
                <rect x="80" y="120" width="128" height="8"/>
            </g>
        </g>
        <g transform="matrix(0.25,0,0,0.25,-24,368)">
            <g transform="matrix(4,0,0,1,512,8)">
                <rect x="96" y="120" width="8" height="128"/>
            </g>
            <g transform="matrix(4,0,0,0.5,608,68)">
                <rect x="96" y="120" width="8" height="128"/>
            </g>
            <g transform="matrix(1,0,0,4,816,-352)">
                <rect x="80" y="120" width="128" height="8"/>
            </g>
            <g transform="matrix(1,0,0,4,816,-256)">
                <rect x="80" y="120" width="128" height="8"/>
            </g>
            <g transform="matrix(1,0,0,1,768,-1728)">
                <rect x="128" y="1792" width="128" height="256" style="fill:none;"/>
            </g>
        </g>
        <g transform="matrix(0.25,0,0,0.25,120,368)">
            <g transform="matrix(4,0,0,1,512,8)">
                <rect x="96" y="120" width="8" height="128"/>
            </g>
            <g transform="matrix(4,0,0,0.5,608,68)">
                <rect x="96" y="120" width="8" height="128"/>
            </g>
            <g transform="matrix(1,0,0,4,816,-352)">
                <rect x="80" y="120" width="128" height="8"/>
            </g>
            <g transform="matrix(1,0,0,4,816,-256)">
                <rect x="80" y="120" width="128" height="8"/>
            </g>
            <g transform="matrix(1,0,0,1,768,-1728)">
                <rect x="128" y="1792" width="128" height="256" style="fill:none;"/>
            </g>
        </g>
        <g transform="matrix(0.25,0,0,0.25,-32,368)">
            <g transform="matrix(4,0,0,1.5,704,-52)">
                <rect x="96" y="120" width="8" height="128"/>
            </g>
            <g transform="matrix(0.5,0,0,4,1048,-352)">
                <rect x="80" y="120" width="128" height="8"/>
            </g>
            <g transform="matrix(0.5,0,0,4,1048,-256)">
                <rect x="80" y="120" width="128" height="8"/>
            </g>
            <g transform="matrix(0.5,0,0,1,1024,-1728)">
                <rect x="128" y="1792" width="128" height="256" style="fill:none;"/>
            </g>
        </g>
        <g transform="matrix(0.25,0,0,0.25,176,368)">
            <g transform="matrix(1,0,0,1,416,8)">
                <rect x="96" y="120" width="8" height="128"/>
            </g>
            <g transform="matrix(1,0,0,1,432,8)">
                <rect x="80" y="120" width="128" height="8"/>
            </g>
            <g transform="matrix(1,0,0,1,432,128)">
                <rect x="80" y="120" width="128" height="8"/>
            </g>
            <g transform="matrix(4,0,0,1,128,8)">
                <rect x="96" y="120" width="8" height="128"/>
            </g>
            <g transform="matrix(1,0,0,4,432,-352)">
                <rect x="80" y="120" width="128" height="8"/>
            </g>
            <g transform="matrix(1,0,0,1,384,-1728)">
                <rect x="128" y="1792" width="128" height="256" style="fill:none;"/>
            </g>
            <g transform="matrix(1,0,0,4,432,-256)">
                <rect x="80" y="120" width="128" height="8"/>
            </g>
        </g>
        <g transform="matrix(0.25,0,0,0.25,80,208)">
            <g transform="matrix(4,0,0,1,32,648)">
                <rect x="96" y="120" width="8" height="128"/>
            </g>
            <g transform="matrix(4,0,0,1.5,-64,588)">
                <rect x="96" y="120" width="8" height="128"/>
            </g>
            <g transform="matrix(1,0,0,1,192,-1088)">
                <rect x="128" y="1792" width="128" height="256" style="fill:none;"/>
            </g>
            <g transform="matrix(1,0,0,4,240,288)">
                <rect x="80" y="120" width="128" height="8"/>
            </g>
            <g transform="matrix(1,0,0,4,240,384)">
                <rect x="80" y="120" width="128" height="8"/>
            </g>
        </g>
    </g>
    <g transform="matrix(1,0,0,1,-456,80)">
        <g transform="matrix(0.25,0,0,0.25,736,384)">
            <g transform="matrix(4,0,0,1,-256,8)">
                <rect x="96" y="120" width="8" height="128"/>
            </g>
            <g transform="matrix(4,0,0,1,-160,8)">
                <rect x="96" y="120" width="8" height="128"/>
            </g>
            <g transform="matrix(1,0,0,4,48,-352)">
                <rect x="80" y="120" width="128" height="8"/>
            </g>
            <g transform="matrix(1,0,0,1,-7.24754e-13,-1728)">
                <rect x="128" y="1792" width="128" height="256" style="fill:none;"/>
            </g>
            <g transform="matrix(0.5,0,0,4,88,-256)">
                <rect x="80" y="120" width="128" height="8"/>
            </g>
        </g>
        <g transform="matrix(0.25,0,0,0.25,632,224)">
            <g transform="matrix(4,0,0,1,320,648)">
                <rect x="96" y="120" width="8" height="128"/>
            </g>
            <g transform="matrix(0.5,0,0,1,640,-1088)">
                <rect x="128" y="1792" width="128" height="256" style="fill:none;"/>
            </g>
            <g transform="matrix(0.5,0,0,4,664,288)">
                <rect x="80" y="120" width="128" height="8"/>
            </g>
        </g>
        <g transform="matrix(0.25,0,0,0.25,-232,224)">
            <g transform="matrix(4,0,0,1,3168,648)">
                <rect x="96" y="120" width="8" height="128"/>
            </g>
            <g transform="matrix(4,0,0,1,3072,648)">
                <rect x="96" y="120" width="8" height="128"/>
            </g>
            <g transform="matrix(1,0,0,4,3376,288)">
                <rect x="80" y="120" width="128" height="8"/>
            </g>
            <g transform="matrix(1,0,0,1,3328,-1088)">
                <rect x="128" y="1792" width="128" height="256" style="fill:none;"/>
            </g>
            <g transform="matrix(1,0,0,4,3376,384)">
                <rect x="80" y="120" width="128" height="8"/>
            </g>
        </g>
        <g transform="matrix(0.25,0,0,0.25,680,144)">
            <g transform="matrix(4,0,0,1,-160,968)">
                <rect x="96" y="120" width="8" height="128"/>
            </g>
            <g transform="matrix(4,0,0,1,-256,968)">
                <rect x="96" y="120" width="8" height="128"/>
            </g>
            <g transform="matrix(1,0,0,1,3.86535e-12,-768)">
                <rect x="128" y="1792" width="128" height="256" style="fill:none;"/>
            </g>
            <g transform="matrix(1,0,0,4,48,704)">
                <rect x="80" y="120" width="128" height="8"/>
            </g>
        </g>
        <g transform="matrix(0.25,0,0,0.25,-284.004,304)">
            <g transform="matrix(4,0,0,1.5,3760.02,204)">
                <rect x="96" y="120" width="8" height="128"/>
            </g>
            <g transform="matrix(0.25,0,0,1,4112.02,-1408)">
                <rect x="128" y="1792" width="128" height="256" style="fill:none;"/>
            </g>
        </g>
        <g transform="matrix(0.25,0,0,0.25,496,384)">
            <g transform="matrix(4,0,0,1,320,8)">
                <rect x="96" y="120" width="8" height="128"/>
            </g>
            <g transform="matrix(4,0,0,1.5,416,-116)">
                <rect x="96" y="120" width="8" height="128"/>
            </g>
            <g transform="matrix(1,0,0,4,624,-352)">
                <rect x="80" y="120" width="128" height="8"/>
            </g>
            <g transform="matrix(1,0,0,4,624,-256)">
                <rect x="80" y="120" width="128" height="8"/>
            </g>
            <g transform="matrix(1,0,0,1,576,-1728)">
                <rect x="128" y="1792" width="128" height="256" style="fill:none;"/>
            </g>
        </g>
        <g transform="matrix(0.25,0,0,0.25,-480,303.757)">
            <g transform="matrix(4,0,0,1,4000,328)">
                <rect x="96" y="120" width="8" height="128"/>
            </g>
            <g transform="matrix(4,0,0,1,3840,328)">
                <rect x="96" y="120" width="8" height="128"/>
            </g>
            <g transform="matrix(4,0,0,0.5,3920,388)">
                <rect x="96" y="120" width="8" height="128"/>
            </g>
            <g transform="matrix(1.5,0,0,4.12132,4104,-46.5584)">
                <rect x="80" y="120" width="128" height="8"/>
            </g>
            <g transform="matrix(1.5,0,0,1,4032,-1407.03)">
                <rect x="128" y="1792" width="128" height="256" style="fill:none;"/>
            </g>
        </g>
    </g>
</svg>
